<?xml version="1.0" encoding="UTF-8" standalone="no"?>
<svg
   xmlns:dc="http://purl.org/dc/elements/1.1/"
   xmlns:cc="http://creativecommons.org/ns#"
   xmlns:rdf="http://www.w3.org/1999/02/22-rdf-syntax-ns#"
   xmlns:svg="http://www.w3.org/2000/svg"
   xmlns="http://www.w3.org/2000/svg"
   xmlns:sodipodi="http://sodipodi.sourceforge.net/DTD/sodipodi-0.dtd"
   xmlns:inkscape="http://www.inkscape.org/namespaces/inkscape"
   version="1.2"
   width="504.55057"
   height="245.88916"
   viewBox="0 0 14239.538 6939.5388"
   preserveAspectRatio="xMidYMid"
   xml:space="preserve"
   id="svg2"
   inkscape:version="0.48.4 r9939"
   sodipodi:docname="3.svg"
   style="fill-rule:evenodd;stroke-width:28.22200012;stroke-linejoin:round"><metadata
   id="metadata50"><rdf:RDF><cc:Work
       rdf:about=""><dc:format>image/svg+xml</dc:format><dc:type
         rdf:resource="http://purl.org/dc/dcmitype/StillImage" /></cc:Work></rdf:RDF></metadata><defs
   id="defs48" /><sodipodi:namedview
   pagecolor="#ffffff"
   bordercolor="#666666"
   borderopacity="1"
   objecttolerance="10"
   gridtolerance="10"
   guidetolerance="10"
   inkscape:pageopacity="0"
   inkscape:pageshadow="2"
   inkscape:window-width="640"
   inkscape:window-height="480"
   id="namedview46"
   showgrid="false"
   fit-margin-top="0.2"
   fit-margin-left="0.2"
   fit-margin-bottom="0.2"
   fit-margin-right="0.2"
   inkscape:zoom="0.22425739"
   inkscape:cx="195.58238"
   inkscape:cy="-8.157807"
   inkscape:window-x="1109"
   inkscape:window-y="260"
   inkscape:window-maximized="0"
   inkscape:current-layer="svg2" />
 <g
   visibility="visible"
   id="MasterSlide_1_Standard"
   style="visibility:visible"
   transform="translate(-4980.2308,-7680.2306)">
  <desc
   id="desc5">Master slide
  </desc>
  <rect
   x="0"
   y="0"
   width="21000"
   height="29700"
   id="rect7"
   style="fill:none;stroke:none" />
 </g>
 <g
   visibility="visible"
   id="Slide_1_page1"
   style="visibility:visible"
   transform="translate(-4980.2308,-7680.2306)">
  <g
   id="g10">
   <path
   d="m 6600,11400 c 907,0 1600,693 1600,1600 0,907 -693,1600 -1600,1600 -907,0 -1600,-693 -1600,-1600 0,-907 693,-1600 1600,-1600 z"
   id="path12"
   inkscape:connector-curvature="0"
   style="fill:#cfe7f5;stroke:none" />
   <path
   id="Drawing_1_0"
   d="m 6600,11400 c 907,0 1600,693 1600,1600 0,907 -693,1600 -1600,1600 -907,0 -1600,-693 -1600,-1600 0,-907 693,-1600 1600,-1600 z"
   inkscape:connector-curvature="0"
   style="fill:none;stroke:#808080;stroke-linejoin:round" />
   <rect
   x="5000"
   y="11400"
   width="3201"
   height="3201"
   id="rect15"
   style="fill:none;stroke:none" />
  </g>
  <g
   id="g17">
   <path
   d="m 17600,11400 c 907,0 1600,693 1600,1600 0,907 -693,1600 -1600,1600 -907,0 -1600,-693 -1600,-1600 0,-907 693,-1600 1600,-1600 z"
   id="path19"
   inkscape:connector-curvature="0"
   style="fill:#cfe7f5;stroke:none" />
   <path
   id="Drawing_2_0"
   d="m 17600,11400 c 907,0 1600,693 1600,1600 0,907 -693,1600 -1600,1600 -907,0 -1600,-693 -1600,-1600 0,-907 693,-1600 1600,-1600 z"
   inkscape:connector-curvature="0"
   style="fill:none;stroke:#808080;stroke-linejoin:round" />
   <rect
   x="16000"
   y="11400"
   width="3201"
   height="3201"
   id="rect22"
   style="fill:none;stroke:none" />
  </g>
  <g
   id="g24">
   <path
   d="m 13350,7700 c 1956,0 3450,1494 3450,3450 0,1956 -1494,3450 -3450,3450 -1956,0 -3450,-1494 -3450,-3450 0,-1956 1494,-3450 3450,-3450 z"
   id="path26"
   inkscape:connector-curvature="0"
   style="fill:#cfe7f5;stroke:none" />
   <path
   id="Drawing_3_0"
   d="m 13350,7700 c 1956,0 3450,1494 3450,3450 0,1956 -1494,3450 -3450,3450 -1956,0 -3450,-1494 -3450,-3450 0,-1956 1494,-3450 3450,-3450 z"
   inkscape:connector-curvature="0"
   style="fill:none;stroke:#808080;stroke-linejoin:round" />
   <rect
   x="9900"
   y="7700"
   width="6901"
   height="6901"
   id="rect29"
   style="fill:none;stroke:none" />
  </g>
  <g
   id="g31">
   <path
   d="m 9050,9500 c 992,0 1750,758 1750,1750 0,992 -758,1750 -1750,1750 -992,0 -1750,-758 -1750,-1750 0,-992 758,-1750 1750,-1750 z"
   id="path33"
   inkscape:connector-curvature="0"
   style="fill:#cfe7f5;stroke:none" />
   <path
   id="Drawing_4_0"
   d="m 9050,9500 c 992,0 1750,758 1750,1750 0,992 -758,1750 -1750,1750 -992,0 -1750,-758 -1750,-1750 0,-992 758,-1750 1750,-1750 z"
   inkscape:connector-curvature="0"
   style="fill:none;stroke:#808080;stroke-linejoin:round" />
   <rect
   x="7300"
   y="9500"
   width="3501"
   height="3501"
   id="rect36"
   style="fill:none;stroke:none" />
  </g>
  <g
   id="g38">
   <path
   d="m 12100,14600 -5500,0 0,-2700 11000,0 0,2700 -5500,0 z"
   id="path40"
   inkscape:connector-curvature="0"
   style="fill:#cfe7f5;stroke:none" />
   <path
   id="Drawing_5_0"
   d="m 12100,14600 -5500,0 0,-2700 11000,0 0,2700 -5500,0 z"
   inkscape:connector-curvature="0"
   style="fill:none;stroke:#cfe7f5;stroke-linejoin:round" />
  </g>
  <g
   id="g43">
   <path
   id="Drawing_6_0"
   d="m 6600,14600 11000,0"
   inkscape:connector-curvature="0"
   style="fill:none;stroke:#808080;stroke-linejoin:round" />
  </g>
 </g>
</svg>